#!OML:ASF F:\VICON\USERDATA\INSTALL\rory3\rory3.ASF
:FULLY-SPECIFIED
:DEGREES
76
root 3.99142 18.8446 6.4416 -173.36 -66.1213 175.937
lowerback 8.31611 1.49128 1.1362
upperback 1.84839 2.02948 0.455591
thorax -2.72282 0.975171 -0.379192
lowerneck -6.2422 -4.28399 -6.76349
upperneck 26.1217 -7.99459 7.25017
head 9.8271 -4.02051 2.78862
rclavicle -4.84041e-014 2.34566e-014
rhumerus -20.7102 3.31239 -83.3266
rradius 34.3305
rwrist 13.3919
rhand -24.6137 4.54764
rfingers 7.12502
rthumb 1.88469 -25.4238
lclavicle -4.84041e-014 2.34566e-014
lhumerus -35.5655 27.1766 70.5101
lradius 21.0655
lwrist -7.14531
lhand -21.9509 23.7203
lfingers 7.12502
lthumb 4.45616 53.6534
rfemur -4.82407 29.1706 21.8211
rtibia 26.1097
rfoot -7.97812 21.4207
rtoes 21.2065
lfemur -21.5759 -8.91217 -12.2739
ltibia 27.1277
lfoot -8.40059 8.3402
ltoes -12.9895
77
root 3.90862 18.8523 6.45101 -174.187 -65.0075 176.846
lowerback 8.31494 1.53628 1.25529
upperback 1.88569 2.09625 0.44039
thorax -2.67773 1.00708 -0.467764
lowerneck -6.29653 -4.1965 -6.51017
upperneck 26.0948 -7.88188 7.13917
head 9.8028 -3.95725 2.71714
rclavicle -1.19271e-014 1.78906e-014
rhumerus -20.7914 3.08026 -83.4826
rradius 34.3451
rwrist 13.455
rhand -24.6434 4.50751
rfingers 7.12502
rthumb 1.85602 -25.4642
lclavicle -1.19271e-014 1.78906e-014
lhumerus -35.4665 26.7742 70.477
lradius 21.1927
lwrist -6.90017
lhand -21.7133 24.2039
lfingers 7.12502
lthumb 4.68565 54.1321
rfemur -4.53107 29.5457 21.9208
rtibia 25.7452
rfoot -7.34172 21.7951
rtoes 21.969
lfemur -21.312 -9.95193 -11.4089
ltibia 25.3616
lfoot -8.04966 7.74067
ltoes -11.8218
78
root 3.82397 18.8525 6.45651 -175.238 -63.6909 177.867
lowerback 8.37502 1.57055 1.33789
upperback 2.05717 2.14191 0.532043
thorax -2.53344 1.02751 -0.422817
lowerneck -6.52278 -4.06973 -6.67774
upperneck 26.0329 -7.67892 7.24873
head 9.81815 -3.86179 2.80163
rclavicle -7.65321e-015 3.97569e-015
rhumerus -20.6511 3.50128 -83.616
rradius 34.2807
rwrist 13.134
rhand -25.0989 4.36603
rfingers 7.12502
rthumb 1.41603 -25.609
lclavicle -7.65321e-015 3.97569e-015
lhumerus -35.3678 26.8603 70.3919
lradius 21.3422
lwrist -6.76472
lhand -21.3277 24.4518
lfingers 7.12502
lthumb 5.0579 54.3714
rfemur -4.14942 30.0572 22.2647
rtibia 25.4742
rfoot -6.93874 22.0595
rtoes 21.9309
lfemur -20.819 -10.9696 -10.4629
ltibia 23.5914
lfoot -7.70054 7.34386
ltoes -11.9806
79
root 3.73121 18.8572 6.5046 -175.257 -62.6754 177.949
lowerback 8.45792 1.31772 1.46994
upperback 2.13217 1.81299 0.535046
thorax -2.50285 0.861708 -0.460893
lowerneck -6.81927 -3.80744 -6.95574
upperneck 26.0493 -7.22617 7.20654
head 9.85173 -3.67533 2.8795
rclavicle 1.51076e-014 1.23246e-014
rhumerus -20.4329 4.59191 -83.7236
rradius 34.2474
rwrist 12.7037
rhand -25.2967 4.19123
rfingers 7.12502
rthumb 1.22496 -25.785
lclavicle 1.51076e-014 1.23246e-014
lhumerus -35.5307 27.5762 70.1456
lradius 21.443
lwrist -6.71463
lhand -21.4355 24.5205
lfingers 7.12502
lthumb 4.95389 54.4426
rfemur -3.99855 29.7413 21.861
rtibia 25.2034
rfoot -6.44827 22.837
rtoes 22.2351
lfemur -20.5662 -12.2525 -10.0521
ltibia 21.8805
lfoot -7.04509 6.91076
ltoes -14.7734
80
root 3.64274 18.8569 6.5239 -175.316 -61.6258 178.08
lowerback 8.46231 1.1611 1.17256
upperback 2.12421 1.5804 0.583776
thorax -2.52734 0.746864 -0.220016
lowerneck -6.81899 -3.56264 -6.78856
upperneck 25.991 -6.8238 6.89946
head 9.77923 -3.508 2.78712
rclavicle -2.25621e-014 -8.74653e-015
rhumerus -20.5072 5.14836 -83.8195
rradius 34.2737
rwrist 12.7188
rhand -25.1624 4.69093
rfingers 7.12502
rthumb 1.35469 -25.2845
lclavicle -2.25621e-014 -8.74653e-015
lhumerus -35.7677 28.1511 69.8229
lradius 21.414
lwrist -6.74379
lhand -21.8075 24.3389
lfingers 7.12502
lthumb 4.59465 54.2691
rfemur -3.83998 29.7937 21.6153
rtibia 25.0045
rfoot -6.16463 23.3422
rtoes 21.925
lfemur -20.318 -13.4853 -9.5119
ltibia 20.3279
lfoot -6.3856 6.39834
ltoes -16.3223
81
root 3.55408 18.8519 6.51296 -175.693 -60.6661 178.317
lowerback 8.51985 1.15521 0.733603
upperback 2.20192 1.53194 0.628206
thorax -2.49258 0.723251 0.0769467
lowerneck -6.88058 -3.45383 -6.66855
upperneck 26.0111 -6.69036 6.86969
head 9.78163 -3.44113 2.76933
rclavicle -2.46493e-014 4.37326e-015
rhumerus -20.6689 4.97701 -83.8458
rradius 34.206
rwrist 13.0487
rhand -24.9892 5.35634
rfingers 7.12502
rthumb 1.52204 -24.618
lclavicle -2.46493e-014 4.37326e-015
lhumerus -35.8131 28.5113 69.5013
lradius 21.3035
lwrist -7.09395
lhand -21.6986 23.9399
lfingers 7.12502
lthumb 4.69976 53.8678
rfemur -3.26777 30.3654 21.8492
rtibia 24.8345
rfoot -6.22124 23.3049
rtoes 21.3275
lfemur -19.8036 -14.681 -8.92357
ltibia 18.8938
lfoot -5.87365 5.89285
ltoes -16.2607
82
root 3.46757 18.8446 6.53813 -175.887 -59.0978 178.859
lowerback 8.35551 1.38731 0.82232
upperback 2.1425 1.84862 0.61366
thorax -2.45851 0.88157 -0.0176707
lowerneck -6.98749 -3.42041 -6.82178
upperneck 26.0318 -6.67906 7.08772
head 9.82115 -3.42925 2.87158
rclavicle 3.89618e-014 -1.11319e-014
rhumerus -20.8137 4.91694 -83.7849
rradius 34.2253
rwrist 13.018
rhand -25.2208 5.06556
rfingers 7.12502
rthumb 1.29835 -24.9102
lclavicle 3.89618e-014 -1.11319e-014
lhumerus -35.7117 27.9068 69.6267
lradius 21.4245
lwrist -6.5514
lhand -21.5873 23.7478
lfingers 7.12502
lthumb 4.8073 53.6733
rfemur -3.67643 30.5891 21.5371
rtibia 24.7768
rfoot -5.79672 24.1631
rtoes 21.2287
lfemur -19.7853 -15.3607 -8.20798
ltibia 17.6296
lfoot -5.37625 5.8476
ltoes -16.6306
83
root 3.37295 18.8381 6.54633 -176.371 -58.1353 179.292
lowerback 8.36612 1.43086 0.825454
upperback 2.25492 1.90142 0.680952
thorax -2.35014 0.905898 0.0460784
lowerneck -6.99039 -3.42277 -6.96653
upperneck 25.8833 -6.66731 7.18159
head 9.77553 -3.42745 2.9295
rclavicle -5.80451e-014 -1.07344e-014
rhumerus -20.9062 5.11561 -83.6604
rradius 34.2864
rwrist 12.6439
rhand -25.6077 4.25573
rfingers 7.12502
rthumb 0.924646 -25.722
lclavicle -5.80451e-014 -1.07344e-014
lhumerus -35.5285 26.6503 70.1398
lradius 21.6949
lwrist -5.27739
lhand -21.5538 23.8951
lfingers 7.12502
lthumb 4.83961 53.8198
rfemur -3.34373 30.7492 21.705
rtibia 24.7715
rfoot -5.82574 24.3634
rtoes 20.993
lfemur -19.3891 -16.1266 -7.68784
ltibia 16.554
lfoot -4.73295 5.31243
ltoes -17.7563
84
root 3.27603 18.8351 6.5695 -176.567 -57.1133 179.502
lowerback 8.39773 1.47384 0.885418
upperback 2.30773 1.95948 0.670946
thorax -2.31041 0.933353 -0.00368567
lowerneck -6.96126 -3.42031 -7.06891
upperneck 25.6837 -6.64359 7.24919
head 9.70213 -3.41867 2.97234
rclavicle -2.55438e-014 -8.74653e-015
rhumerus -20.9837 4.92006 -83.4978
rradius 34.2508
rwrist 12.678
rhand -25.4881 3.97446
rfingers 7.12502
rthumb 1.04013 -26.0028
lclavicle -2.55438e-014 -8.74653e-015
lhumerus -35.3611 26.1519 70.3987
lradius 21.7321
lwrist -4.87858
lhand -21.7223 24.3079
lfingers 7.12502
lthumb 4.67695 54.2363
rfemur -3.23772 30.8484 21.4668
rtibia 24.8139
rfoot -5.20459 24.7559
rtoes 21.9975
lfemur -19.1334 -16.6087 -7.42393
ltibia 15.8062
lfoot -4.24327 4.91351
ltoes -19.1208
85
root 3.17505 18.8291 6.58957 -176.765 -56.03 179.69
lowerback 8.43811 1.47119 0.857175
upperback 2.33188 1.9508 0.645958
thorax -2.30793 0.928162 -0.0133808
lowerneck -7.05638 -3.29845 -7.09476
upperneck 25.7415 -6.49484 7.31692
head 9.7309 -3.34825 3.01562
rclavicle -1.03169e-013 1.70955e-014
rhumerus -21.1511 4.64682 -83.4433
rradius 34.2609
rwrist 13.3335
rhand -24.9573 3.58639
rfingers 7.12502
rthumb 1.55284 -26.3877
lclavicle -1.03169e-013 1.70955e-014
lhumerus -35.3641 26.5331 70.1059
lradius 21.5652
lwrist -5.25261
lhand -22.3183 24.5424
lfingers 7.12502
lthumb 4.10144 54.4827
rfemur -3.10339 31.122 21.2588
rtibia 24.8861
rfoot -4.47772 25.0396
rtoes 23.3476
lfemur -18.8324 -16.7418 -7.30558
ltibia 15.2744
lfoot -3.81993 4.68983
ltoes -20.4365
86
root 3.07327 18.8127 6.6053 -177.048 -54.9489 179.974
lowerback 8.43888 1.4789 0.861352
upperback 2.36609 1.95815 0.637548
thorax -2.27253 0.930915 -0.0245658
lowerneck -7.16127 -3.19899 -7.13296
upperneck 25.8301 -6.39364 7.43057
head 9.77847 -3.29724 3.07215
rclavicle 2.78299e-014 -1.23246e-014
rhumerus -21.3697 4.32927 -83.3712
rradius 34.387
rwrist 13.843
rhand -24.5043 2.99341
rfingers 7.12502
rthumb 1.99036 -26.977
lclavicle 2.78299e-014 -1.23246e-014
lhumerus -35.3284 26.5141 70.0061
lradius 21.5144
lwrist -5.31721
lhand -22.8136 25.213
lfingers 7.12502
lthumb 3.62309 55.162
rfemur -2.96572 31.2902 21.2772
rtibia 25.0837
rfoot -4.43989 25.2813
rtoes 22.9009
lfemur -18.5363 -16.7064 -7.18441
ltibia 14.9626
lfoot -3.28366 4.51603
ltoes -20.5308
87
root 2.97241 18.7961 6.62373 -177.083 -53.8697 180.03
lowerback 8.39216 1.51783 0.739824
upperback 2.37184 1.99721 0.581616
thorax -2.24276 0.95071 -0.0166771
lowerneck -7.08298 -3.14718 -7.0482
upperneck 25.7485 -6.34758 7.44773
head 9.72741 -3.27248 3.06858
rclavicle -5.76476e-014 -6.36111e-015
rhumerus -21.6493 4.12944 -83.3148
rradius 34.4675
rwrist 13.5662
rhand -24.85 3.4365
rfingers 7.12502
rthumb 1.65645 -26.5368
lclavicle -5.76476e-014 -6.36111e-015
lhumerus -35.2658 26.3976 69.977
lradius 21.4655
lwrist -5.46287
lhand -22.5711 25.2324
lfingers 7.12502
lthumb 3.85725 55.1773
rfemur -2.97334 31.2682 21.0511
rtibia 25.3288
rfoot -4.61518 25.5891
rtoes 21.7603
lfemur -18.3361 -16.4009 -7.30745
ltibia 14.9367
lfoot -2.77267 4.29406
ltoes -18.7182
88
root 2.86751 18.7832 6.64367 -177.205 -52.8315 180.079
lowerback 8.40603 1.48806 0.632332
upperback 2.41302 1.94448 0.535612
thorax -2.2102 0.92375 0.00182786
lowerneck -7.07886 -3.08585 -6.91271
upperneck 25.7574 -6.26541 7.3211
head 9.71412 -3.23986 3.00896
rclavicle 1.54058e-014 3.57812e-015
rhumerus -21.7954 4.2961 -83.3179
rradius 34.3759
rwrist 13.002
rhand -25.0403 3.89236
rfingers 7.12502
rthumb 1.47263 -26.0823
lclavicle 1.54058e-014 3.57812e-015
lhumerus -35.3281 26.9543 69.5594
lradius 21.331
lwrist -6.06815
lhand -21.7126 24.7197
lfingers 7.12502
lthumb 4.68627 54.6478
rfemur -2.8446 31.5942 20.8193
rtibia 25.5875
rfoot -4.57144 25.6502
rtoes 21.6632
lfemur -18.0829 -15.7818 -7.61669
ltibia 15.2493
lfoot -2.54955 3.93111
ltoes -15.7429
